<?xml version="1.0" encoding="UTF-8" standalone="no"?><svg xmlns="http://www.w3.org/2000/svg" xmlns:xlink="http://www.w3.org/1999/xlink" contentStyleType="text/css" height="366px" preserveAspectRatio="none" style="width:1091px;height:366px;background:#FFFFFF;" version="1.1" viewBox="0 0 1091 366" width="1091px" zoomAndPan="magnify"><defs/><g><rect fill="#FFFFFF" height="63.2656" style="stroke:#181818;stroke-width:1.0;" width="10" x="52" y="46.2969"/><rect fill="#FFFFFF" height="203.9297" style="stroke:#181818;stroke-width:1.0;" width="10" x="186" y="109.5625"/><rect fill="#FFFFFF" height="29.1328" style="stroke:#181818;stroke-width:1.0;" width="10" x="585" y="138.6953"/><rect fill="#FFFFFF" height="29.1328" style="stroke:#181818;stroke-width:1.0;" width="10" x="877" y="196.9609"/><rect fill="#FFFFFF" height="29.1328" style="stroke:#181818;stroke-width:1.0;" width="10" x="1054.5" y="255.2266"/><line style="stroke:#181818;stroke-width:0.5;stroke-dasharray:5.0,5.0;" x1="57" x2="57" y1="36.2969" y2="331.4922"/><line style="stroke:#181818;stroke-width:0.5;stroke-dasharray:5.0,5.0;" x1="190.5" x2="190.5" y1="36.2969" y2="331.4922"/><line style="stroke:#181818;stroke-width:0.5;stroke-dasharray:5.0,5.0;" x1="590" x2="590" y1="36.2969" y2="331.4922"/><line style="stroke:#181818;stroke-width:0.5;stroke-dasharray:5.0,5.0;" x1="882" x2="882" y1="36.2969" y2="331.4922"/><line style="stroke:#181818;stroke-width:0.5;stroke-dasharray:5.0,5.0;" x1="1059" x2="1059" y1="36.2969" y2="331.4922"/><rect fill="#E2E2F0" height="30.2969" rx="2.5" ry="2.5" style="stroke:#181818;stroke-width:0.5;" width="104" x="5" y="5"/><text fill="#000000" font-family="sans-serif" font-size="14" lengthAdjust="spacing" textLength="90" x="12" y="24.9951">Feign.Builder</text><rect fill="#E2E2F0" height="30.2969" rx="2.5" ry="2.5" style="stroke:#181818;stroke-width:0.5;" width="104" x="5" y="330.4922"/><text fill="#000000" font-family="sans-serif" font-size="14" lengthAdjust="spacing" textLength="90" x="12" y="350.4873">Feign.Builder</text><rect fill="#E2E2F0" height="30.2969" rx="2.5" ry="2.5" style="stroke:#181818;stroke-width:0.5;" width="119" x="131.5" y="5"/><text fill="#000000" font-family="sans-serif" font-size="14" lengthAdjust="spacing" textLength="105" x="138.5" y="24.9951">ReflectiveFeign</text><rect fill="#E2E2F0" height="30.2969" rx="2.5" ry="2.5" style="stroke:#181818;stroke-width:0.5;" width="119" x="131.5" y="330.4922"/><text fill="#000000" font-family="sans-serif" font-size="14" lengthAdjust="spacing" textLength="105" x="138.5" y="350.4873">ReflectiveFeign</text><rect fill="#E2E2F0" height="30.2969" rx="2.5" ry="2.5" style="stroke:#181818;stroke-width:0.5;" width="280" x="450" y="5"/><text fill="#000000" font-family="sans-serif" font-size="14" lengthAdjust="spacing" textLength="266" x="457" y="24.9951">ReflectiveFeign.ParseHandlersByName</text><rect fill="#E2E2F0" height="30.2969" rx="2.5" ry="2.5" style="stroke:#181818;stroke-width:0.5;" width="280" x="450" y="330.4922"/><text fill="#000000" font-family="sans-serif" font-size="14" lengthAdjust="spacing" textLength="266" x="457" y="350.4873">ReflectiveFeign.ParseHandlersByName</text><rect fill="#E2E2F0" height="30.2969" rx="2.5" ry="2.5" style="stroke:#181818;stroke-width:0.5;" width="284" x="740" y="5"/><text fill="#000000" font-family="sans-serif" font-size="14" lengthAdjust="spacing" textLength="270" x="747" y="24.9951">ReflectiveFeign.FeignInvocationHandler</text><rect fill="#E2E2F0" height="30.2969" rx="2.5" ry="2.5" style="stroke:#181818;stroke-width:0.5;" width="284" x="740" y="330.4922"/><text fill="#000000" font-family="sans-serif" font-size="14" lengthAdjust="spacing" textLength="270" x="747" y="350.4873">ReflectiveFeign.FeignInvocationHandler</text><rect fill="#E2E2F0" height="30.2969" rx="2.5" ry="2.5" style="stroke:#181818;stroke-width:0.5;" width="51" x="1034" y="5"/><text fill="#000000" font-family="sans-serif" font-size="14" lengthAdjust="spacing" textLength="37" x="1041" y="24.9951">Proxy</text><rect fill="#E2E2F0" height="30.2969" rx="2.5" ry="2.5" style="stroke:#181818;stroke-width:0.5;" width="51" x="1034" y="330.4922"/><text fill="#000000" font-family="sans-serif" font-size="14" lengthAdjust="spacing" textLength="37" x="1041" y="350.4873">Proxy</text><rect fill="#FFFFFF" height="63.2656" style="stroke:#181818;stroke-width:1.0;" width="10" x="52" y="46.2969"/><rect fill="#FFFFFF" height="203.9297" style="stroke:#181818;stroke-width:1.0;" width="10" x="186" y="109.5625"/><rect fill="#FFFFFF" height="29.1328" style="stroke:#181818;stroke-width:1.0;" width="10" x="585" y="138.6953"/><rect fill="#FFFFFF" height="29.1328" style="stroke:#181818;stroke-width:1.0;" width="10" x="877" y="196.9609"/><rect fill="#FFFFFF" height="29.1328" style="stroke:#181818;stroke-width:1.0;" width="10" x="1054.5" y="255.2266"/><line style="stroke:#181818;stroke-width:1.0;" x1="62" x2="104" y1="67.4297" y2="67.4297"/><line style="stroke:#181818;stroke-width:1.0;" x1="104" x2="104" y1="67.4297" y2="80.4297"/><line style="stroke:#181818;stroke-width:1.0;" x1="63" x2="104" y1="80.4297" y2="80.4297"/><polygon fill="#181818" points="73,76.4297,63,80.4297,73,84.4297,69,80.4297" style="stroke:#181818;stroke-width:1.0;"/><text fill="#000000" font-family="sans-serif" font-size="13" font-weight="bold" lengthAdjust="spacing" textLength="9" x="69" y="62.3638">1</text><text fill="#000000" font-family="sans-serif" font-size="13" font-weight="bold" lengthAdjust="spacing" textLength="37" x="82" y="62.3638">build</text><polygon fill="#181818" points="174,105.5625,184,109.5625,174,113.5625,178,109.5625" style="stroke:#181818;stroke-width:1.0;"/><line style="stroke:#181818;stroke-width:1.0;" x1="57" x2="180" y1="109.5625" y2="109.5625"/><text fill="#000000" font-family="sans-serif" font-size="13" font-weight="bold" lengthAdjust="spacing" textLength="9" x="64" y="104.4966">2</text><text fill="#000000" font-family="sans-serif" font-size="13" font-weight="bold" lengthAdjust="spacing" textLength="92" x="77" y="104.4966">newInstance</text><polygon fill="#181818" points="573,134.6953,583,138.6953,573,142.6953,577,138.6953" style="stroke:#181818;stroke-width:1.0;"/><line style="stroke:#181818;stroke-width:1.0;" x1="196" x2="579" y1="138.6953" y2="138.6953"/><text fill="#000000" font-family="sans-serif" font-size="13" font-weight="bold" lengthAdjust="spacing" textLength="9" x="203" y="133.6294">3</text><text fill="#000000" font-family="sans-serif" font-size="13" font-weight="bold" lengthAdjust="spacing" textLength="41" x="216" y="133.6294">apply</text><text fill="#000000" font-family="sans-serif" font-size="13" lengthAdjust="spacing" textLength="312" x="261" y="133.6294">(根据target对象创建方法名和方法处理器的map映射)</text><polygon fill="#181818" points="207,163.8281,197,167.8281,207,171.8281,203,167.8281" style="stroke:#181818;stroke-width:1.0;"/><line style="stroke:#181818;stroke-width:1.0;stroke-dasharray:2.0,2.0;" x1="201" x2="589" y1="167.8281" y2="167.8281"/><text fill="#000000" font-family="sans-serif" font-size="13" font-weight="bold" lengthAdjust="spacing" textLength="9" x="213" y="162.7622">4</text><text fill="#000000" font-family="sans-serif" font-size="13" lengthAdjust="spacing" textLength="4" x="226" y="162.7622"> </text><polygon fill="#181818" points="865,192.9609,875,196.9609,865,200.9609,869,196.9609" style="stroke:#181818;stroke-width:1.0;"/><line style="stroke:#181818;stroke-width:1.0;" x1="196" x2="871" y1="196.9609" y2="196.9609"/><text fill="#000000" font-family="sans-serif" font-size="13" font-weight="bold" lengthAdjust="spacing" textLength="9" x="203" y="191.895">5</text><text fill="#000000" font-family="sans-serif" font-size="13" font-weight="bold" lengthAdjust="spacing" textLength="47" x="216" y="191.895">create</text><text fill="#000000" font-family="sans-serif" font-size="13" lengthAdjust="spacing" textLength="101" x="267" y="191.895">(设置调用处理器)</text><polygon fill="#181818" points="207,222.0938,197,226.0938,207,230.0938,203,226.0938" style="stroke:#181818;stroke-width:1.0;"/><line style="stroke:#181818;stroke-width:1.0;stroke-dasharray:2.0,2.0;" x1="201" x2="881" y1="226.0938" y2="226.0938"/><text fill="#000000" font-family="sans-serif" font-size="13" font-weight="bold" lengthAdjust="spacing" textLength="9" x="213" y="221.0278">6</text><text fill="#000000" font-family="sans-serif" font-size="13" lengthAdjust="spacing" textLength="4" x="226" y="221.0278"> </text><polygon fill="#181818" points="1042.5,251.2266,1052.5,255.2266,1042.5,259.2266,1046.5,255.2266" style="stroke:#181818;stroke-width:1.0;"/><line style="stroke:#181818;stroke-width:1.0;" x1="196" x2="1048.5" y1="255.2266" y2="255.2266"/><text fill="#000000" font-family="sans-serif" font-size="13" font-weight="bold" lengthAdjust="spacing" textLength="9" x="203" y="250.1606">7</text><text fill="#000000" font-family="sans-serif" font-size="13" font-weight="bold" lengthAdjust="spacing" textLength="133" x="216" y="250.1606">newProxyInstance</text><text fill="#000000" font-family="sans-serif" font-size="13" lengthAdjust="spacing" textLength="107" x="353" y="250.1606">生成 JDK 动态代理</text><polygon fill="#181818" points="207,280.3594,197,284.3594,207,288.3594,203,284.3594" style="stroke:#181818;stroke-width:1.0;"/><line style="stroke:#181818;stroke-width:1.0;stroke-dasharray:2.0,2.0;" x1="201" x2="1058.5" y1="284.3594" y2="284.3594"/><text fill="#000000" font-family="sans-serif" font-size="13" font-weight="bold" lengthAdjust="spacing" textLength="9" x="213" y="279.2935">8</text><text fill="#000000" font-family="sans-serif" font-size="13" lengthAdjust="spacing" textLength="4" x="226" y="279.2935"> </text><polygon fill="#181818" points="68,309.4922,58,313.4922,68,317.4922,64,313.4922" style="stroke:#181818;stroke-width:1.0;"/><line style="stroke:#181818;stroke-width:1.0;stroke-dasharray:2.0,2.0;" x1="62" x2="190" y1="313.4922" y2="313.4922"/><text fill="#000000" font-family="sans-serif" font-size="13" font-weight="bold" lengthAdjust="spacing" textLength="9" x="74" y="308.4263">9</text><text fill="#000000" font-family="sans-serif" font-size="13" lengthAdjust="spacing" textLength="78" x="87" y="308.4263">返回动态代理</text><!--SRC=[IomjoSyhpKrABUBYIamkoInBB4bLS4lDJC_JSohDp4a1YgFm57JjKAKLh1HiakoIG1mR_IGxJDL1gMavgI2JKy5I2hgwsjfWFNcfvPvvnIM9UScfO9qO2Z7qwWKa5XMdUYJcfUIa5XKxLVebvgOgG4rBB2Z8gGIPew3nRC7EPxthIXABqbDBdgxV-MBZmgSTiv_ktlLisivdcwS-dT3xT58FbBsavVc4jgSpLpoVrPARMF1ineAd6reqkOfIIqgByeXn49Zqp2lBJquioSpFWpeDvgRaebHWS48SzMBTlkTxrxtOqFnyoWgujVYi2YZAhwXKG8GLc8ySO0hFfyn_rZ51mSl5M-5frufd3OrFTYy6cWip4q8flDW_vUdiUSWA0000]--></g></svg>