<?xml version="1.0" encoding="UTF-8" standalone="no"?><svg xmlns="http://www.w3.org/2000/svg" xmlns:xlink="http://www.w3.org/1999/xlink" contentStyleType="text/css" height="510px" preserveAspectRatio="none" style="width:916px;height:510px;background:#FFFFFF;" version="1.1" viewBox="0 0 916 510" width="916px" zoomAndPan="magnify"><defs/><g><rect fill="#FFFFFF" height="389.7266" style="stroke:#181818;stroke-width:1.0;" width="10" x="297" y="67.4297"/><rect fill="#FFFFFF" height="216.9297" style="stroke:#181818;stroke-width:1.0;" width="10" x="609" y="211.0938"/><rect fill="#FFFFFF" height="129.5313" style="stroke:#181818;stroke-width:1.0;" width="10" x="744" y="269.3594"/><rect fill="#FFFFFF" height="71.2656" style="stroke:#181818;stroke-width:1.0;" width="10" x="842.5" y="298.4922"/><line style="stroke:#181818;stroke-width:0.5;stroke-dasharray:5.0,5.0;" x1="301.5" x2="301.5" y1="36.2969" y2="475.1563"/><line style="stroke:#181818;stroke-width:0.5;stroke-dasharray:5.0,5.0;" x1="613.5" x2="613.5" y1="36.2969" y2="475.1563"/><line style="stroke:#181818;stroke-width:0.5;stroke-dasharray:5.0,5.0;" x1="748.5" x2="748.5" y1="36.2969" y2="475.1563"/><line style="stroke:#181818;stroke-width:0.5;stroke-dasharray:5.0,5.0;" x1="847.5" x2="847.5" y1="36.2969" y2="475.1563"/><rect fill="#E2E2F0" height="30.2969" rx="2.5" ry="2.5" style="stroke:#181818;stroke-width:0.5;" width="153" x="225.5" y="5"/><text fill="#000000" font-family="sans-serif" font-size="14" lengthAdjust="spacing" textLength="139" x="232.5" y="24.9951">FeignClientRegistrar</text><rect fill="#E2E2F0" height="30.2969" rx="2.5" ry="2.5" style="stroke:#181818;stroke-width:0.5;" width="153" x="225.5" y="474.1563"/><text fill="#000000" font-family="sans-serif" font-size="14" lengthAdjust="spacing" textLength="139" x="232.5" y="494.1514">FeignClientRegistrar</text><rect fill="#E2E2F0" height="30.2969" rx="2.5" ry="2.5" style="stroke:#181818;stroke-width:0.5;" width="177" x="525.5" y="5"/><text fill="#000000" font-family="sans-serif" font-size="14" lengthAdjust="spacing" textLength="163" x="532.5" y="24.9951">FeignClientFactoryBean</text><rect fill="#E2E2F0" height="30.2969" rx="2.5" ry="2.5" style="stroke:#181818;stroke-width:0.5;" width="177" x="525.5" y="474.1563"/><text fill="#000000" font-family="sans-serif" font-size="14" lengthAdjust="spacing" textLength="163" x="532.5" y="494.1514">FeignClientFactoryBean</text><rect fill="#E2E2F0" height="30.2969" rx="2.5" ry="2.5" style="stroke:#181818;stroke-width:0.5;" width="73" x="712.5" y="5"/><text fill="#000000" font-family="sans-serif" font-size="14" lengthAdjust="spacing" textLength="59" x="719.5" y="24.9951">Targeter</text><rect fill="#E2E2F0" height="30.2969" rx="2.5" ry="2.5" style="stroke:#181818;stroke-width:0.5;" width="73" x="712.5" y="474.1563"/><text fill="#000000" font-family="sans-serif" font-size="14" lengthAdjust="spacing" textLength="59" x="719.5" y="494.1514">Targeter</text><rect fill="#E2E2F0" height="30.2969" rx="2.5" ry="2.5" style="stroke:#181818;stroke-width:0.5;" width="104" x="795.5" y="5"/><text fill="#000000" font-family="sans-serif" font-size="14" lengthAdjust="spacing" textLength="90" x="802.5" y="24.9951">Feign.Builder</text><rect fill="#E2E2F0" height="30.2969" rx="2.5" ry="2.5" style="stroke:#181818;stroke-width:0.5;" width="104" x="795.5" y="474.1563"/><text fill="#000000" font-family="sans-serif" font-size="14" lengthAdjust="spacing" textLength="90" x="802.5" y="494.1514">Feign.Builder</text><rect fill="#FFFFFF" height="389.7266" style="stroke:#181818;stroke-width:1.0;" width="10" x="297" y="67.4297"/><rect fill="#FFFFFF" height="216.9297" style="stroke:#181818;stroke-width:1.0;" width="10" x="609" y="211.0938"/><rect fill="#FFFFFF" height="129.5313" style="stroke:#181818;stroke-width:1.0;" width="10" x="744" y="269.3594"/><rect fill="#FFFFFF" height="71.2656" style="stroke:#181818;stroke-width:1.0;" width="10" x="842.5" y="298.4922"/><polygon fill="#181818" points="285,63.4297,295,67.4297,285,71.4297,289,67.4297" style="stroke:#181818;stroke-width:1.0;"/><line style="stroke:#181818;stroke-width:1.0;" x1="5" x2="291" y1="67.4297" y2="67.4297"/><text fill="#000000" font-family="sans-serif" font-size="13" font-weight="bold" lengthAdjust="spacing" textLength="9" x="12" y="62.3638">1</text><text fill="#000000" font-family="sans-serif" font-size="13" lengthAdjust="spacing" textLength="190" x="25" y="62.3638">Spring应用上下文refresh，处理</text><text fill="#000000" font-family="sans-serif" font-size="13" font-weight="bold" lengthAdjust="spacing" textLength="75" x="215" y="62.3638">@lmport时</text><line style="stroke:#181818;stroke-width:1.0;" x1="307" x2="349" y1="111.6953" y2="111.6953"/><line style="stroke:#181818;stroke-width:1.0;" x1="349" x2="349" y1="111.6953" y2="124.6953"/><line style="stroke:#181818;stroke-width:1.0;" x1="308" x2="349" y1="124.6953" y2="124.6953"/><polygon fill="#181818" points="318,120.6953,308,124.6953,318,128.6953,314,124.6953" style="stroke:#181818;stroke-width:1.0;"/><text fill="#000000" font-family="sans-serif" font-size="13" font-weight="bold" lengthAdjust="spacing" textLength="9" x="314" y="99.063">2</text><text fill="#000000" font-family="sans-serif" font-size="13" font-weight="bold" lengthAdjust="spacing" textLength="212" x="327" y="91.4966">registerDefaultConfiguration</text><text fill="#000000" font-family="sans-serif" font-size="13" lengthAdjust="spacing" textLength="104" x="331" y="106.6294">注入全局默认配置</text><line style="stroke:#181818;stroke-width:1.0;" x1="307" x2="349" y1="168.9609" y2="168.9609"/><line style="stroke:#181818;stroke-width:1.0;" x1="349" x2="349" y1="168.9609" y2="181.9609"/><line style="stroke:#181818;stroke-width:1.0;" x1="308" x2="349" y1="181.9609" y2="181.9609"/><polygon fill="#181818" points="318,177.9609,308,181.9609,318,185.9609,314,181.9609" style="stroke:#181818;stroke-width:1.0;"/><text fill="#000000" font-family="sans-serif" font-size="13" font-weight="bold" lengthAdjust="spacing" textLength="9" x="314" y="156.3286">3</text><text fill="#000000" font-family="sans-serif" font-size="13" font-weight="bold" lengthAdjust="spacing" textLength="149" x="327" y="148.7622">registerFeignClients</text><text fill="#000000" font-family="sans-serif" font-size="13" lengthAdjust="spacing" textLength="26" x="331" y="163.895">注入</text><text fill="#000000" font-family="sans-serif" font-size="13" font-weight="bold" lengthAdjust="spacing" textLength="83" x="357" y="163.895">FeignClient</text><polygon fill="#181818" points="597,207.0938,607,211.0938,597,215.0938,601,211.0938" style="stroke:#181818;stroke-width:1.0;"/><line style="stroke:#181818;stroke-width:1.0;" x1="307" x2="603" y1="211.0938" y2="211.0938"/><text fill="#000000" font-family="sans-serif" font-size="13" font-weight="bold" lengthAdjust="spacing" textLength="9" x="314" y="206.0278">4</text><text fill="#000000" font-family="sans-serif" font-size="13" lengthAdjust="spacing" textLength="91" x="327" y="206.0278">实际注入的类是</text><text fill="#000000" font-family="sans-serif" font-size="13" font-weight="bold" lengthAdjust="spacing" textLength="175" x="422" y="206.0278">FeignClientFactoryBean</text><polygon fill="#181818" points="597,236.2266,607,240.2266,597,244.2266,601,240.2266" style="stroke:#181818;stroke-width:1.0;"/><line style="stroke:#181818;stroke-width:1.0;" x1="0" x2="603" y1="240.2266" y2="240.2266"/><text fill="#000000" font-family="sans-serif" font-size="13" font-weight="bold" lengthAdjust="spacing" textLength="9" x="7" y="235.1606">5</text><text fill="#000000" font-family="sans-serif" font-size="13" lengthAdjust="spacing" textLength="168" x="20" y="235.1606">bean工厂获取bean时，执行</text><text fill="#000000" font-family="sans-serif" font-size="13" font-weight="bold" lengthAdjust="spacing" textLength="73" x="192" y="235.1606">getObject</text><polygon fill="#181818" points="732,265.3594,742,269.3594,732,273.3594,736,269.3594" style="stroke:#181818;stroke-width:1.0;"/><line style="stroke:#181818;stroke-width:1.0;" x1="619" x2="738" y1="269.3594" y2="269.3594"/><text fill="#000000" font-family="sans-serif" font-size="13" font-weight="bold" lengthAdjust="spacing" textLength="9" x="626" y="264.2935">6</text><text fill="#000000" font-family="sans-serif" font-size="13" font-weight="bold" lengthAdjust="spacing" textLength="73" x="639" y="264.2935">getTarget</text><polygon fill="#181818" points="830.5,294.4922,840.5,298.4922,830.5,302.4922,834.5,298.4922" style="stroke:#181818;stroke-width:1.0;"/><line style="stroke:#181818;stroke-width:1.0;" x1="754" x2="836.5" y1="298.4922" y2="298.4922"/><text fill="#000000" font-family="sans-serif" font-size="13" font-weight="bold" lengthAdjust="spacing" textLength="9" x="761" y="293.4263">7</text><text fill="#000000" font-family="sans-serif" font-size="13" font-weight="bold" lengthAdjust="spacing" textLength="46" x="774" y="293.4263">target</text><line style="stroke:#181818;stroke-width:1.0;" x1="852.5" x2="894.5" y1="327.625" y2="327.625"/><line style="stroke:#181818;stroke-width:1.0;" x1="894.5" x2="894.5" y1="327.625" y2="340.625"/><line style="stroke:#181818;stroke-width:1.0;" x1="853.5" x2="894.5" y1="340.625" y2="340.625"/><polygon fill="#181818" points="863.5,336.625,853.5,340.625,863.5,344.625,859.5,340.625" style="stroke:#181818;stroke-width:1.0;"/><text fill="#000000" font-family="sans-serif" font-size="13" font-weight="bold" lengthAdjust="spacing" textLength="9" x="859.5" y="322.5591">8</text><text fill="#000000" font-family="sans-serif" font-size="13" font-weight="bold" lengthAdjust="spacing" textLength="37" x="872.5" y="322.5591">build</text><polygon fill="#181818" points="765,365.7578,755,369.7578,765,373.7578,761,369.7578" style="stroke:#181818;stroke-width:1.0;"/><line style="stroke:#181818;stroke-width:1.0;stroke-dasharray:2.0,2.0;" x1="759" x2="846.5" y1="369.7578" y2="369.7578"/><text fill="#000000" font-family="sans-serif" font-size="13" font-weight="bold" lengthAdjust="spacing" textLength="9" x="771" y="364.6919">9</text><text fill="#000000" font-family="sans-serif" font-size="13" lengthAdjust="spacing" textLength="4" x="784" y="364.6919"> </text><polygon fill="#181818" points="630,394.8906,620,398.8906,630,402.8906,626,398.8906" style="stroke:#181818;stroke-width:1.0;"/><line style="stroke:#181818;stroke-width:1.0;stroke-dasharray:2.0,2.0;" x1="624" x2="748" y1="398.8906" y2="398.8906"/><text fill="#000000" font-family="sans-serif" font-size="13" font-weight="bold" lengthAdjust="spacing" textLength="18" x="636" y="393.8247">10</text><text fill="#000000" font-family="sans-serif" font-size="13" lengthAdjust="spacing" textLength="4" x="658" y="393.8247"> </text><polygon fill="#181818" points="318,424.0234,308,428.0234,318,432.0234,314,428.0234" style="stroke:#181818;stroke-width:1.0;"/><line style="stroke:#181818;stroke-width:1.0;stroke-dasharray:2.0,2.0;" x1="312" x2="613" y1="428.0234" y2="428.0234"/><text fill="#000000" font-family="sans-serif" font-size="13" font-weight="bold" lengthAdjust="spacing" textLength="18" x="324" y="422.9575">11</text><text fill="#000000" font-family="sans-serif" font-size="13" lengthAdjust="spacing" textLength="4" x="346" y="422.9575"> </text><polygon fill="#181818" points="11,453.1563,1,457.1563,11,461.1563,7,457.1563" style="stroke:#181818;stroke-width:1.0;"/><line style="stroke:#181818;stroke-width:1.0;stroke-dasharray:2.0,2.0;" x1="5" x2="301" y1="457.1563" y2="457.1563"/><text fill="#000000" font-family="sans-serif" font-size="13" font-weight="bold" lengthAdjust="spacing" textLength="18" x="17" y="452.0903">12</text><text fill="#000000" font-family="sans-serif" font-size="13" lengthAdjust="spacing" textLength="110" x="39" y="452.0903">return到bean工厂</text><!--SRC=[dPBFJi904CRl-nHxyq3q0Hg31WnN4_McboqEjQPioR1Dz6OCzI-Y1uBemSG4OayeCH4Y-ZPi2oTVmPOQQ1KImsKdi_FDRtQ-BBE4oQsy2aZ8ocAIPa3NUDhGWOiDqFIYG8OqaL3ePW5rhidtgbTr-jsBVlVIhPqYv12AUryVPTaeUJSdosforSWNJ1JkxHkPofenGw5-Buuom3N8CSiGQPFdTCr29dIJqnrEtLT7sarfEx9zDEpL1wt6qBxoFblpJue8YfC9lY1I-0yzmxB2nCCKC3voIxOUXdTsIFFkIrwxvzQVQPmRwI7RCt4ALVrJTfgoSZoeTEHrBSXzUttJtVEdmMCvm6eWrjLzo0goC1ygpfYnsPXiSW47CMD-oROO-ZW8lWvLVXuOtf5nQOnRIbcwiHiHYr0PB_vHZwHga104OI6V6cWOvDdBPFbl]--></g></svg>